# xmcd
#
# Track frame offsets: 
#        150
#        14868
#        27813
#        38296
#        50008
#        59159
#        73299
#        84331
#        96963
#        106218
#        117271
#        127207
#
# Disc length: 1959 seconds
#
# Revision: 0
# Processed by: cddbd v1.5.2PL0 Copyright (c) Steve Scherf et al.
# Submitted via: ExactAudioCopy v0.99pb5
#
DISCID=ab07a50c
DTITLE=J. J. Cale - The J.J. Cale Collection CD1
DYEAR=2011
DGENRE=Blues
TTITLE0=Hey Babe
TTITLE1=Cocaine
TTITLE2=Carry on
TTITLE3=Call me the breeze
TTITLE4=Devil in disguise
TTITLE5=Don't wait
TTITLE6=Downtown L. A.
TTITLE7=City Girls
TTITLE8=Rock and Roll records
TTITLE9=Crazy Mama
TTITLE10=Cajun Moon
TTITLE11=Midnight in Memphis
EXTD=
EXTT0=
EXTT1=
EXTT2=
EXTT3=
EXTT4=
EXTT5=
EXTT6=
EXTT7=
EXTT8=
EXTT9=
EXTT10=
EXTT11=
PLAYORDER=
